<svg width="163" height="24" viewBox="0 0 163 24" fill="none" xmlns="http://www.w3.org/2000/svg">
<path d="M31.4498 7.74494V3.45948C31.3514 2.75008 31.059 2.08117 30.6045 1.52574C30.2282 1.04346 29.7332 0.665776 29.1673 0.429133C29.1352 0.462292 29.111 0.502169 29.0964 0.545845C29.0818 0.589521 29.0772 0.635891 29.0829 0.681564V0.681564V10.3514C29.0829 10.6878 28.8291 10.8557 28.4927 10.8557C28.3481 10.8628 28.2063 10.8144 28.0965 10.7206C27.9867 10.6268 27.9172 10.4947 27.9024 10.3514V0.595855C27.9024 0.43977 27.8401 0.290079 27.7291 0.179711C27.6182 0.0693424 27.4677 0.00733811 27.3107 0.00733811C27.1538 0.00733811 27.0033 0.0693424 26.8923 0.179711C26.7814 0.290079 26.719 0.43977 26.719 0.595855V0.595855V12.6216C26.719 12.9579 26.4652 13.1258 26.1288 13.1258C25.9842 13.1329 25.8424 13.0845 25.7326 12.9907C25.6228 12.8969 25.5533 12.7648 25.5385 12.6216V0.595855C25.5385 0.43977 25.4762 0.290079 25.3652 0.179711C25.2543 0.0693424 25.1038 0.00733811 24.9468 0.00733811C24.7899 0.00733811 24.6394 0.0693424 24.5284 0.179711C24.4175 0.290079 24.3551 0.43977 24.3551 0.595855V14.9786C24.3551 15.3149 24.1013 15.4828 23.7649 15.4828C23.6203 15.4899 23.4785 15.4415 23.3687 15.3477C23.2589 15.2539 23.1894 15.1218 23.1747 14.9786V0.595855C23.1747 0.43977 23.1123 0.290079 23.0013 0.179711C22.8904 0.0693424 22.7399 0.00733811 22.5829 0.00733811C22.426 0.00733811 22.2755 0.0693424 22.1645 0.179711C22.0536 0.290079 21.9912 0.43977 21.9912 0.595855V0.595855V17.2446C21.9912 17.5809 21.7374 17.7488 21.401 17.7488C21.2564 17.7559 21.1146 17.7075 21.0048 17.6137C20.895 17.5199 20.8255 17.3878 20.8108 17.2446V0.595855C20.8125 0.518301 20.7983 0.44121 20.7693 0.369226C20.7402 0.297241 20.6968 0.231854 20.6417 0.177002C20.5865 0.122151 20.5208 0.0789714 20.4484 0.050065C20.376 0.0211585 20.2985 0.00712355 20.2205 0.00880574C20.0473 0.0131579 19.8801 0.0724752 19.7432 0.178092C19.6063 0.283709 19.507 0.430091 19.4597 0.595855V0.595855V19.601C19.4597 19.9374 19.2059 20.1053 18.8695 20.1053C18.7249 20.1123 18.5831 20.064 18.4733 19.9701C18.3635 19.8763 18.294 19.7442 18.2792 19.601V0.595855C18.2792 0.43977 18.2169 0.290079 18.1059 0.179711C17.995 0.0693424 17.8445 0.00733811 17.6875 0.00733811C17.5306 0.00733811 17.3801 0.0693424 17.2691 0.179711C17.1582 0.290079 17.0958 0.43977 17.0958 0.595855V0.595855V20.4381C17.0989 20.6174 17.0655 20.7954 16.9975 20.9614C16.9296 21.1275 16.8285 21.2782 16.7005 21.4043C16.5724 21.5305 16.42 21.6296 16.2524 21.6956C16.0848 21.7615 15.9055 21.7931 15.7253 21.7883C15.3783 21.7974 15.0416 21.67 14.7884 21.4339C14.5351 21.1977 14.3857 20.8718 14.3725 20.5268V0.595855C14.3725 0.43977 14.3101 0.290079 14.1992 0.179711C14.0882 0.0693424 13.9377 0.00733811 13.7808 0.00733811C13.6238 0.00733811 13.4733 0.0693424 13.3624 0.179711C13.2514 0.290079 13.189 0.43977 13.189 0.595855V19.601C13.189 19.9374 12.9352 20.1053 12.5988 20.1053C12.4542 20.1123 12.3124 20.064 12.2026 19.9701C12.0928 19.8763 12.0234 19.7442 12.0086 19.601V0.595855C12.0086 0.43977 11.9462 0.290079 11.8353 0.179711C11.7243 0.0693424 11.5738 0.00733811 11.4169 0.00733811C11.2599 0.00733811 11.1094 0.0693424 10.9985 0.179711C10.8875 0.290079 10.8252 0.43977 10.8252 0.595855V0.595855V17.2446C10.8252 17.5809 10.5714 17.7488 10.2349 17.7488C10.0903 17.7559 9.94853 17.7075 9.83872 17.6137C9.72892 17.5199 9.65947 17.3878 9.64468 17.2446V0.595855C9.64468 0.43977 9.58234 0.290079 9.47137 0.179711C9.36041 0.0693424 9.2099 0.00733811 9.05297 0.00733811C8.89604 0.00733811 8.74553 0.0693424 8.63457 0.179711C8.5236 0.290079 8.46126 0.43977 8.46126 0.595855V0.595855V14.9786C8.46126 15.3149 8.20746 15.4828 7.87102 15.4828C7.72644 15.4899 7.58464 15.4415 7.47483 15.3477C7.36502 15.2539 7.29557 15.1218 7.28079 14.9786V0.595855C7.28079 0.43977 7.21845 0.290079 7.10748 0.179711C6.99651 0.0693424 6.84601 0.00733811 6.68908 0.00733811C6.53215 0.00733811 6.38164 0.0693424 6.27067 0.179711C6.15971 0.290079 6.09737 0.43977 6.09737 0.595855V12.6216C6.09737 12.9579 5.84356 13.1258 5.50713 13.1258C5.36255 13.1329 5.22074 13.0845 5.11094 12.9907C5.00113 12.8969 4.93168 12.7648 4.91689 12.6216V0.595855C4.91689 0.437824 4.85378 0.286266 4.74142 0.174522C4.62907 0.0627774 4.47669 0 4.3178 0C4.15892 0 4.00654 0.0627774 3.89418 0.174522C3.78183 0.286266 3.71872 0.437824 3.71872 0.595855V0.595855V10.3514C3.71872 10.6878 3.46491 10.8557 3.12848 10.8557C2.9839 10.8628 2.84209 10.8144 2.73229 10.7206C2.62248 10.6268 2.55303 10.4947 2.53824 10.3514V0.681564C2.54398 0.635891 2.53938 0.589521 2.52477 0.545845C2.51017 0.502169 2.48593 0.462292 2.45384 0.429133C2.12215 0.484598 1.80653 0.611073 1.52882 0.799807C1.25111 0.988541 1.01794 1.23503 0.845448 1.52222C0.377938 2.06989 0.0838494 2.74293 0.000230067 3.45654V20.6941C-0.00445072 21.0487 0.0623358 21.4008 0.19665 21.7294C0.330963 22.058 0.530084 22.3565 0.782264 22.6073C1.03444 22.8581 1.33458 23.0562 1.66495 23.1897C1.99533 23.3233 2.34926 23.3898 2.70587 23.3851H28.7447C29.1013 23.3898 29.4552 23.3233 29.7856 23.1897C30.116 23.0562 30.4161 22.8581 30.6683 22.6073C30.9205 22.3565 31.1196 22.058 31.2539 21.7294C31.3882 21.4008 31.455 21.0487 31.4503 20.6941V7.74494" fill="#180C2E"/>
<path d="M69.3264 23.3767L66.7058 17.5749H54.5316L51.9936 23.3767H49.7129L59.5197 1.59717H61.8021L71.6939 23.3767H69.3264ZM55.3792 15.6394H65.8606L60.6187 3.86729L55.3792 15.6394Z" fill="#180C2E"/>
<path d="M89.7018 23.3767L84.9675 16.2294C84.2911 16.2294 83.7841 16.3133 83.4459 16.3133H77.4432V23.3767H75.2451V1.59717H83.4459C86.1515 1.59717 88.2645 2.18422 89.7868 3.44696C91.309 4.7097 92.0692 6.47378 92.0692 8.82844C92.1401 10.4498 91.6639 12.0481 90.7164 13.3693C89.7719 14.6147 88.4306 15.5046 86.9117 15.8936L92.1536 23.3767H89.7018ZM83.4453 14.3796C85.5589 14.3796 87.1637 13.8753 88.2639 12.9501C88.8349 12.4308 89.2828 11.7918 89.5753 11.0793C89.8677 10.3668 89.9974 9.59861 89.955 8.8302C89.9977 8.07415 89.8677 7.3183 89.5748 6.61933C89.282 5.92035 88.8338 5.29639 88.2639 4.79424C87.1649 3.86905 85.5583 3.44872 83.4453 3.44872H77.4432V14.3784L83.4453 14.3796Z" fill="#180C2E"/>
<path d="M112.274 3.02908C112.89 3.50118 113.381 4.11533 113.705 4.8185C114.029 5.52166 114.176 6.2927 114.133 7.06504C114.172 8.25351 113.782 9.41655 113.034 10.3443C112.247 11.2386 111.171 11.8331 109.991 12.0262C111.427 12.156 112.773 12.7806 113.796 13.792C114.721 14.7981 115.208 16.1281 115.149 17.4904C115.193 18.3371 115.023 19.1812 114.654 19.9452C114.284 20.7093 113.728 21.3687 113.035 21.8628C111.305 22.9849 109.266 23.5432 107.202 23.4601H97.9014V1.59668H107.117C109.315 1.51508 111.09 2.01994 112.274 3.02908ZM110.668 10.1764C111.092 9.83465 111.429 9.39695 111.65 8.89971C111.87 8.40246 111.969 7.86001 111.936 7.31747C111.96 6.78821 111.857 6.26091 111.636 5.77864C111.416 5.29636 111.084 4.87278 110.668 4.54249C109.608 3.80132 108.324 3.44522 107.032 3.53394H100.099V11.1849H107.032C108.324 11.2735 109.607 10.9174 110.667 10.1764H110.668ZM111.428 20.3505C111.921 19.998 112.319 19.5291 112.584 18.986C112.85 18.4429 112.976 17.8426 112.95 17.2392C112.988 16.6366 112.858 16.0354 112.574 15.5015C112.291 14.9676 111.865 14.5216 111.344 14.2124C110.329 13.4557 108.806 13.1193 106.948 13.1193H100.015V21.4436H106.947C108.892 21.4436 110.414 21.1073 111.428 20.3505Z" fill="#180C2E"/>
<path d="M135.606 2.85931C137.319 3.82056 138.747 5.21231 139.749 6.89527C140.762 8.56989 141.288 10.4906 141.271 12.4446C141.289 14.3986 140.763 16.3196 139.751 17.9946C138.726 19.6592 137.303 21.0456 135.609 22.0306C132.989 23.527 129.884 23.9425 126.96 23.1879C124.036 22.4334 121.525 20.5689 119.967 17.9946C118.955 16.32 118.428 14.3993 118.446 12.4452C118.428 10.4912 118.955 8.57048 119.967 6.89586C120.992 5.2311 122.416 3.8444 124.11 2.85931C125.855 1.85088 127.841 1.32813 129.859 1.3459C131.875 1.33922 133.858 1.86123 135.606 2.85931V2.85931ZM125.207 4.54121C123.826 5.34125 122.665 6.46756 121.826 7.82046C120.996 9.22179 120.558 10.8187 120.558 12.4452C120.558 14.0718 120.996 15.6687 121.826 17.07C122.638 18.466 123.804 19.6257 125.207 20.4332C126.612 21.2692 128.221 21.7055 129.857 21.6948C131.469 21.7167 133.053 21.2789 134.423 20.4332C135.808 19.602 136.969 18.4477 137.804 17.07C138.635 15.6687 139.072 14.0718 139.072 12.4452C139.072 10.8187 138.635 9.22179 137.804 7.82046C137.013 6.43007 135.84 5.29259 134.423 4.54121C133.038 3.74177 131.459 3.33472 129.857 3.36417C128.224 3.28327 126.603 3.69341 125.207 4.54121Z" fill="#180C2E"/>
<path d="M160.548 23.3767L155.814 16.2294C155.138 16.2294 154.631 16.3133 154.293 16.3133H148.29V23.3767H146.092V1.59717H154.293C156.998 1.59717 159.111 2.18422 160.633 3.44696C162.156 4.7097 162.916 6.47378 162.916 8.82844C162.987 10.4498 162.511 12.0481 161.563 13.3693C160.619 14.6147 159.277 15.5046 157.758 15.8936L163 23.3767H160.548ZM154.292 14.3796C156.406 14.3796 158.01 13.8753 159.111 12.9501C159.682 12.4308 160.13 11.7918 160.422 11.0793C160.714 10.3668 160.844 9.59861 160.802 8.8302C160.844 8.07415 160.714 7.3183 160.422 6.61933C160.129 5.92035 159.68 5.29639 159.111 4.79424C158.012 3.86905 156.405 3.44872 154.292 3.44872H148.289V14.3784L154.292 14.3796Z" fill="#180C2E"/>
</svg>
