<svg width="80" height="40" viewBox="0 0 80 40" fill="none" xmlns="http://www.w3.org/2000/svg">
<path fill-rule="evenodd" clip-rule="evenodd" d="M78.7842 8.30998H75.269C75.0847 8.30984 74.9079 8.23649 74.7776 8.10607C74.6473 7.97565 74.5741 7.79882 74.5741 7.61445V4.05567C74.5741 3.87135 74.6473 3.69458 74.7776 3.56425C74.908 3.43392 75.0847 3.3607 75.269 3.3607H78.7853C78.9694 3.361 79.1459 3.43435 79.276 3.56465C79.4061 3.69495 79.4792 3.87155 79.4792 4.05567V7.61501C79.4791 7.70621 79.461 7.79649 79.4261 7.88071C79.3911 7.96493 79.3399 8.04144 79.2754 8.10587C79.2108 8.1703 79.1342 8.22139 79.05 8.25622C78.9657 8.29105 78.8754 8.30894 78.7842 8.30886V8.30998ZM74.0996 3.35958H71.7114C71.6495 3.35958 71.5881 3.34738 71.531 3.32366C71.4738 3.29995 71.4218 3.2652 71.378 3.22139C71.3343 3.17758 71.2996 3.12557 71.2759 3.06835C71.2523 3.01112 71.2402 2.94979 71.2402 2.88787V0.471147C71.2402 0.409228 71.2524 0.347917 71.2762 0.290718C71.2999 0.233519 71.3346 0.181556 71.3784 0.137798C71.4222 0.0940408 71.4742 0.059348 71.5315 0.0357035C71.5887 0.0120591 71.65 -7.32057e-05 71.7119 3.32309e-07H74.1007C74.1626 7.37708e-05 74.224 0.0123476 74.2812 0.0361209C74.3384 0.0598943 74.3903 0.0947016 74.4341 0.138556C74.4778 0.18241 74.5125 0.234451 74.5361 0.29171C74.5598 0.348968 74.5719 0.410321 74.5718 0.472267V2.88955C74.5718 3.01466 74.5221 3.13464 74.4337 3.2231C74.3452 3.31156 74.2252 3.36126 74.1001 3.36126" fill="#180C2E"/>
<path opacity="0.963" fill-rule="evenodd" clip-rule="evenodd" d="M71.2316 12.2012V24.254C71.2856 25.9779 70.8402 27.6807 69.9491 29.1574C68.3174 31.7213 65.1571 33.0872 60.6644 33.0872H60.6308C56.1376 33.0872 52.9772 31.7213 51.3455 29.1574C50.4544 27.6807 50.0091 25.9779 50.063 24.254V12.2012C50.063 10.2545 50.8576 9.90138 52.9956 9.90138H53.6671C55.8046 9.90138 56.5992 10.2545 56.5992 12.2012V16.7576V16.7867V17.785C56.5992 17.8197 56.602 17.8516 56.602 17.8874V24.254C56.5705 24.9114 56.73 25.5638 57.0614 26.1325C57.6444 27.0277 58.796 27.4373 60.6426 27.4401C62.4891 27.4429 63.6423 27.0294 64.2237 26.1308C64.5549 25.5625 64.7143 24.9104 64.6826 24.2535V17.8874C64.6826 17.8521 64.6826 17.8202 64.6853 17.785V16.7867V16.7576V12.2012C64.6853 10.2545 65.481 9.90138 67.618 9.90138H68.2895C70.427 9.90138 71.2215 10.2545 71.2215 12.2012H71.2316ZM47.8701 16.8455L43.8972 32.7419C42.73 37.4025 40.7397 39.404 37.0253 39.6458C36.9351 39.654 36.8444 39.6583 36.7534 39.6586C35.9527 39.6586 35.6997 39.2166 35.5515 38.5037L35.4832 38.1948C35.4309 38.0406 35.4108 37.8773 35.4243 37.715C35.4378 37.5527 35.4845 37.3949 35.5615 37.2514C35.7451 37.0063 36.073 36.9347 36.5771 36.8922C39.0649 36.637 39.9093 35.4866 40.7385 32.8785C40.2936 33.019 39.8291 33.0875 39.3626 33.0816C36.6292 33.0816 35.8967 31.1791 35.2806 28.8765L31.9994 16.8539C31.9236 16.6792 31.8871 16.49 31.8926 16.2997C31.8981 16.1094 31.9455 15.9226 32.0313 15.7527C32.171 15.6258 32.3371 15.5316 32.5177 15.4768C32.6983 15.4221 32.8888 15.4081 33.0754 15.436H33.3496C34.382 15.436 34.7781 15.7404 35.0473 16.7386L38.2927 28.6572C38.713 30.1445 39.1321 30.3963 40.1879 30.3963C41.048 30.3963 41.551 30.1282 41.9086 28.6616L44.7763 16.7431C45.0046 15.7527 45.4097 15.4348 46.441 15.4348H46.7516C46.938 15.4079 47.128 15.4218 47.3085 15.4756C47.489 15.5294 47.6556 15.6219 47.7968 15.7465C47.8867 15.9138 47.9393 16.0986 47.9508 16.2881C47.9623 16.4777 47.9325 16.6675 47.8634 16.8444L47.8701 16.8455ZM27.81 24.9059H23.9888C20.9146 24.9059 19.7171 25.6893 19.7171 27.6919C19.7171 29.52 20.9112 30.4091 23.3665 30.4091C27.0831 30.4091 27.8117 29.2738 27.8117 27.3126V24.9065L27.81 24.9059ZM23.3671 14.9307C28.3975 14.9307 30.8428 16.7772 30.8428 20.5749V27.4155C30.8428 31.3425 28.5486 33.0933 23.4007 33.0933C19.0703 33.0933 16.686 31.1746 16.686 27.6914C16.686 24.1001 18.9953 22.4276 23.9535 22.4276H27.81V20.5749C27.81 18.4979 26.5622 17.6507 23.5014 17.6507C22.2423 17.6471 20.9861 17.7722 19.7524 18.0239C19.5798 18.0706 19.4023 18.0963 19.2236 18.1006C19.093 18.1098 18.9623 18.0847 18.8445 18.0276C18.7267 17.9706 18.6258 17.8836 18.5521 17.7755C18.4154 17.5219 18.3541 17.2346 18.3753 16.9473V16.6703C18.3753 15.7001 18.7323 15.4662 19.5851 15.2815C20.8286 15.0337 22.0947 14.9161 23.3626 14.9307H23.3671ZM13.647 17.2349C13.647 20.0948 12.9168 21.6442 9.06426 21.6442H3.13352V14.2637C3.13352 13.2397 3.51458 12.8598 4.53745 12.8598H9.06482C11.9667 12.8592 13.647 13.5749 13.647 17.2349ZM9.06482 9.89746H3.95159C1.21872 9.89746 0 11.1162 0 13.8491V31.4024C0 32.4582 0.339092 32.7973 1.39498 32.7973H1.74022C2.79779 32.7945 3.13352 32.4554 3.13352 31.4024V24.5758H9.06482C14.3297 24.5758 16.7822 22.2441 16.7822 17.2383C16.7822 12.2325 14.3297 9.89746 9.06482 9.89746Z" fill="#180C2E"/>
<path opacity="0.921" fill-rule="evenodd" clip-rule="evenodd" d="M73.6371 14.9701H68.9032C68.6554 14.9701 68.4177 14.8717 68.2424 14.6964C68.0672 14.5212 67.9688 14.2835 67.9688 14.0357V9.24305C67.9688 8.99522 68.0672 8.75754 68.2424 8.58229C68.4177 8.40705 68.6554 8.30859 68.9032 8.30859H73.6371C73.8849 8.30859 74.1226 8.40705 74.2978 8.58229C74.4731 8.75754 74.5715 8.99522 74.5715 9.24305V14.0362C74.5715 14.159 74.5473 14.2806 74.5003 14.3941C74.4533 14.5075 74.3843 14.6106 74.2974 14.6974C74.2105 14.7842 74.1074 14.853 73.9939 14.8999C73.8804 14.9468 73.7588 14.9708 73.6359 14.9707" fill="#180C2E"/>
</svg>
