<svg width="95" height="21" viewBox="0 0 95 21" fill="none" xmlns="http://www.w3.org/2000/svg">
<path d="M12.7055 13.7367C12.7055 14.6543 12.6195 15.5439 12.4474 16.4054C12.2944 17.2668 11.9885 18.0347 11.5296 18.7089C11.0707 19.3643 10.4111 19.8981 9.55064 20.3101C8.70934 20.7034 7.60036 20.9 6.22369 20.9C4.61758 20.9 3.26003 20.5254 2.15104 19.7763C1.04206 19.0272 0.325047 17.8568 0 16.2649L4.10133 15.2817C4.15869 15.7686 4.37857 16.1806 4.76098 16.5177C5.16251 16.8548 5.61184 17.0234 6.10897 17.0234C6.62522 17.0234 7.02675 16.9017 7.31355 16.6582C7.60036 16.396 7.81068 16.0776 7.94453 15.7031C8.07837 15.3285 8.15485 14.9259 8.17397 14.4952C8.21221 14.0457 8.23133 13.6337 8.23133 13.2591V0.505645H12.7055V13.7367Z" fill="#180C2E"/>
<path d="M15.4588 10.45C15.4588 8.85815 15.7265 7.41613 16.2619 6.12392C16.8164 4.83172 17.5812 3.73616 18.5563 2.83723C19.5315 1.91958 20.6883 1.21729 22.0267 0.730375C23.3651 0.243458 24.8278 0 26.4148 0C28.0018 0 29.4645 0.243458 30.803 0.730375C32.1414 1.21729 33.2982 1.91958 34.2733 2.83723C35.2485 3.73616 36.0037 4.83172 36.5391 6.12392C37.0936 7.41613 37.3708 8.85815 37.3708 10.45C37.3708 12.0418 37.0936 13.4839 36.5391 14.7761C36.0037 16.0683 35.2485 17.1732 34.2733 18.0909C33.2982 18.9898 32.1414 19.6827 30.803 20.1696C29.4645 20.6565 28.0018 20.9 26.4148 20.9C24.8278 20.9 23.3651 20.6565 22.0267 20.1696C20.6883 19.6827 19.5315 18.9898 18.5563 18.0909C17.5812 17.1732 16.8164 16.0683 16.2619 14.7761C15.7265 13.4839 15.4588 12.0418 15.4588 10.45ZM20.1051 10.45C20.1051 11.3864 20.2485 12.2478 20.5353 13.0344C20.8412 13.8022 21.2714 14.4764 21.8259 15.057C22.3804 15.6188 23.0401 16.0589 23.8049 16.3773C24.5888 16.6957 25.4588 16.8548 26.4148 16.8548C27.3709 16.8548 28.2313 16.6957 28.9961 16.3773C29.78 16.0589 30.4492 15.6188 31.0037 15.057C31.5582 14.4764 31.9789 13.8022 32.2657 13.0344C32.5716 12.2478 32.7246 11.3864 32.7246 10.45C32.7246 9.53235 32.5716 8.68024 32.2657 7.89368C31.9789 7.10712 31.5582 6.43293 31.0037 5.8711C30.4492 5.29055 29.78 4.84108 28.9961 4.52272C28.2313 4.20435 27.3709 4.04516 26.4148 4.04516C25.4588 4.04516 24.5888 4.20435 23.8049 4.52272C23.0401 4.84108 22.3804 5.29055 21.8259 5.8711C21.2714 6.43293 20.8412 7.10712 20.5353 7.89368C20.2485 8.68024 20.1051 9.53235 20.1051 10.45Z" fill="#180C2E"/>
<path d="M40.4119 0.505645H46.4921L55.125 14.3266H55.1824V0.505645H59.6565V20.3944H53.8057L44.9434 6.23629H44.886V20.3944H40.4119V0.505645Z" fill="#180C2E"/>
<path d="M63.971 0.505645H77.7663V4.55081H68.4451V8.25887H77.2501V12.304H68.4451V16.3492H78.2826V20.3944H63.971V0.505645Z" fill="#180C2E"/>
<path d="M91.9025 5.36546C91.5392 4.91599 91.0421 4.58826 90.4111 4.38226C89.7992 4.15753 89.2161 4.04516 88.6616 4.04516C88.3365 4.04516 88.0019 4.08262 87.6578 4.15753C87.3136 4.23244 86.9885 4.35417 86.6826 4.52272C86.3767 4.67254 86.1281 4.87854 85.9369 5.14072C85.7457 5.40291 85.6501 5.72128 85.6501 6.09583C85.6501 6.69512 85.8796 7.15394 86.3385 7.47231C86.7973 7.79068 87.371 8.06223 88.0593 8.28696C88.7667 8.51169 89.522 8.73642 90.3251 8.96116C91.1281 9.18589 91.8738 9.50426 92.5621 9.91626C93.2696 10.3283 93.8528 10.8807 94.3117 11.5737C94.7706 12.2666 95 13.1936 95 14.3547C95 15.4596 94.7897 16.4241 94.369 17.2481C93.9484 18.0721 93.3748 18.7557 92.6482 19.2988C91.9407 19.8419 91.109 20.2445 90.153 20.5067C89.2161 20.7689 88.2218 20.9 87.1702 20.9C85.8509 20.9 84.6272 20.7034 83.4991 20.3101C82.371 19.9168 81.3194 19.2801 80.3442 18.3999L83.5278 14.9727C83.9867 15.572 84.5603 16.0402 85.2486 16.3773C85.9561 16.6957 86.6826 16.8548 87.4283 16.8548C87.7916 16.8548 88.1549 16.8174 88.5182 16.7425C88.9006 16.6488 89.2352 16.5177 89.522 16.3492C89.8279 16.1806 90.0669 15.9653 90.239 15.7031C90.4302 15.4409 90.5258 15.1319 90.5258 14.7761C90.5258 14.1768 90.2868 13.7086 89.8088 13.3715C89.3499 13.0157 88.7667 12.716 88.0593 12.4726C87.3518 12.2291 86.587 11.9857 85.7648 11.7422C84.9427 11.4987 84.1779 11.171 83.4704 10.759C82.7629 10.347 82.1702 9.8039 81.6922 9.1297C81.2333 8.45551 81.0039 7.56595 81.0039 6.46102C81.0039 5.39355 81.2142 4.45717 81.6348 3.65188C82.0746 2.84659 82.6482 2.1724 83.3557 1.6293C84.0823 1.0862 84.914 0.683557 85.8509 0.421371C86.7878 0.140457 87.7534 0 88.7476 0C89.8949 0 91.0038 0.159184 92.0746 0.477553C93.1453 0.795922 94.1109 1.32966 94.9713 2.07876L91.9025 5.36546Z" fill="#180C2E"/>
</svg>
